<?xml version="1.0" standalone="no"?>
<!DOCTYPE svg PUBLIC "-//W3C//DTD SVG 20010904//EN"
 "http://www.w3.org/TR/2001/REC-SVG-20010904/DTD/svg10.dtd">
<svg version="1.0" xmlns="http://www.w3.org/2000/svg"
 width="194.000000pt" height="165.000000pt" viewBox="0 0 194.000000 165.000000"
 preserveAspectRatio="xMidYMid meet">

<g transform="translate(0.000000,165.000000) scale(0.100000,-0.100000)"
fill="#000000" stroke="none">
<path d="M815 1500 c-88 -20 -193 -68 -272 -127 -45 -34 -86 -63 -91 -65 -18
-7 -84 -102 -73 -106 6 -2 8 -9 4 -15 -4 -7 1 -6 10 2 26 20 31 7 12 -29 -44
-86 -57 -143 -61 -280 -2 -79 0 -125 5 -110 l8 25 11 -26 c6 -15 16 -46 22
-70 19 -71 59 -139 126 -218 35 -41 64 -78 64 -82 0 -14 161 -86 232 -104 47
-12 90 -16 146 -13 71 4 89 10 183 57 57 29 122 62 144 73 22 10 55 27 74 36
19 9 37 24 39 32 4 11 1 10 -12 -3 -16 -16 -46 -24 -46 -12 0 3 19 27 43 53
65 71 126 234 127 339 0 23 5 54 12 68 l11 26 28 -31 28 -30 6 32 c11 60 -24
222 -59 267 -8 11 -8 13 1 7 9 -5 11 -2 7 9 -4 9 -9 14 -11 11 -9 -8 -43 28
-43 46 0 10 -6 18 -13 18 -7 0 -29 20 -50 44 -26 32 -43 44 -61 42 -24 -1 -24
-1 10 -39 46 -50 43 -55 -8 -14 -48 37 -123 85 -182 114 -26 14 -35 22 -27 28
8 4 39 -6 74 -24 61 -31 62 -31 32 -4 l-30 26 28 -5 c41 -8 33 0 -30 29 -54
25 -69 27 -218 29 -88 1 -178 -2 -200 -6z m66 -61 c-51 -4 -98 -12 -104 -18
-6 -6 -16 -11 -21 -11 -6 0 -6 4 1 11 17 17 71 27 148 27 68 -1 67 -1 -24 -9z
m265 -79 c97 -49 235 -179 272 -257 12 -26 14 -42 6 -71 -5 -20 -7 -50 -4 -67
5 -24 10 -29 28 -28 21 3 22 -1 22 -70 0 -84 -26 -186 -63 -250 -38 -64 -168
-192 -224 -220 -59 -29 -204 -51 -275 -42 -205 27 -352 103 -401 208 -31 67
-55 123 -61 145 -4 12 -12 22 -17 22 -10 0 -11 11 -13 150 0 76 4 107 22 153
54 142 102 202 218 275 68 42 228 80 345 81 76 1 92 -2 145 -29z"/>
<path d="M526 1064 c-9 -8 -14 -20 -11 -25 9 -14 25 -11 25 6 0 8 9 15 20 15
11 0 20 -3 20 -7 0 -5 -18 -43 -40 -86 -22 -43 -38 -82 -35 -88 9 -13 76 -11
105 4 21 11 27 11 36 -1 8 -11 15 -12 30 -4 11 6 26 7 32 3 7 -4 30 -7 50 -6
32 1 38 5 46 30 26 89 48 104 39 27 -4 -40 -2 -50 12 -55 9 -4 24 -3 33 2 11
6 24 6 35 0 11 -6 23 -6 35 0 11 6 24 6 35 0 11 -7 23 -7 34 0 11 6 24 6 36
-1 12 -6 23 -6 32 2 8 7 20 8 27 4 21 -13 101 -11 131 3 24 12 30 12 44 -2 18
-19 59 -13 83 11 13 13 12 14 -12 5 -20 -7 -29 -7 -38 4 -9 11 -5 17 18 29 47
24 48 76 2 76 -23 0 -60 -42 -60 -68 0 -40 -18 -23 -24 23 -10 62 -37 62 -61
-1 -9 -25 -14 -48 -11 -51 3 -4 7 -3 7 0 1 4 3 12 4 17 1 6 3 15 4 20 3 24 21
7 21 -19 0 -33 -10 -39 -52 -33 -26 4 -28 7 -22 38 11 57 10 69 -6 69 -9 0
-19 -16 -25 -42 -6 -23 -16 -48 -24 -55 -11 -11 -12 -3 -6 45 6 54 5 58 -12
55 -13 -2 -20 -17 -27 -56 -6 -33 -15 -52 -24 -52 -11 0 -12 11 -7 54 l7 55
-33 -1 c-19 0 -42 -5 -51 -10 -23 -11 -46 -58 -41 -80 3 -12 -2 -18 -13 -18
-14 0 -16 7 -11 44 7 48 -9 73 -39 62 -14 -5 -16 -1 -11 24 5 22 3 30 -8 30
-20 0 -28 -18 -40 -90 -9 -49 -15 -66 -29 -68 -16 -3 -17 1 -11 40 4 23 8 48
9 53 0 6 -6 10 -14 10 -9 0 -21 -19 -30 -48 -9 -27 -20 -47 -25 -45 -6 2 -9 5
-9 8 1 3 5 24 9 48 6 35 4 42 -9 42 -18 0 -36 -38 -36 -76 0 -20 -4 -24 -19
-19 -12 3 -21 0 -25 -10 -5 -13 -46 -22 -46 -10 0 3 18 42 40 86 23 44 38 84
35 89 -10 16 -82 11 -99 -6z m459 -111 c-8 -44 -18 -58 -35 -48 -20 13 7 85
32 85 6 0 8 -15 3 -37z m375 23 c0 -7 -7 -19 -15 -26 -16 -13 -20 -3 -9 24 8
20 24 21 24 2z"/>
<path d="M291 734 c0 -11 3 -14 6 -6 3 7 2 16 -1 19 -3 4 -6 -2 -5 -13z"/>
<path d="M381 574 c0 -11 3 -14 6 -6 3 7 2 16 -1 19 -3 4 -6 -2 -5 -13z"/>
<path d="M440 450 c6 -11 13 -20 16 -20 2 0 0 9 -6 20 -6 11 -13 20 -16 20 -2
0 0 -9 6 -20z"/>
</g>
</svg>
